<svg xmlns="http://www.w3.org/2000/svg" viewBox="0 0 495 495" width="495" height="495">
  <rect width="495" height="495" fill="#ffffff" />
  <rect x="60" y="60" width="15" height="15" fill="#000000" />
  <rect x="75" y="60" width="15" height="15" fill="#000000" />
  <rect x="90" y="60" width="15" height="15" fill="#000000" />
  <rect x="105" y="60" width="15" height="15" fill="#000000" />
  <rect x="120" y="60" width="15" height="15" fill="#000000" />
  <rect x="135" y="60" width="15" height="15" fill="#000000" />
  <rect x="150" y="60" width="15" height="15" fill="#000000" />
  <rect x="180" y="60" width="15" height="15" fill="#000000" />
  <rect x="210" y="60" width="15" height="15" fill="#000000" />
  <rect x="255" y="60" width="15" height="15" fill="#000000" />
  <rect x="270" y="60" width="15" height="15" fill="#000000" />
  <rect x="300" y="60" width="15" height="15" fill="#000000" />
  <rect x="315" y="60" width="15" height="15" fill="#000000" />
  <rect x="330" y="60" width="15" height="15" fill="#000000" />
  <rect x="360" y="60" width="15" height="15" fill="#000000" />
  <rect x="375" y="60" width="15" height="15" fill="#000000" />
  <rect x="390" y="60" width="15" height="15" fill="#000000" />
  <rect x="405" y="60" width="15" height="15" fill="#000000" />
  <rect x="420" y="60" width="15" height="15" fill="#000000" />
  <rect x="60" y="75" width="15" height="15" fill="#000000" />
  <rect x="150" y="75" width="15" height="15" fill="#000000" />
  <rect x="210" y="75" width="15" height="15" fill="#000000" />
  <rect x="225" y="75" width="15" height="15" fill="#000000" />
  <rect x="240" y="75" width="15" height="15" fill="#000000" />
  <rect x="270" y="75" width="15" height="15" fill="#000000" />
  <rect x="285" y="75" width="15" height="15" fill="#000000" />
  <rect x="360" y="75" width="15" height="15" fill="#000000" />
  <rect x="60" y="90" width="15" height="15" fill="#000000" />
  <rect x="90" y="90" width="15" height="15" fill="#000000" />
  <rect x="105" y="90" width="15" height="15" fill="#000000" />
  <rect x="120" y="90" width="15" height="15" fill="#000000" />
  <rect x="150" y="90" width="15" height="15" fill="#000000" />
  <rect x="180" y="90" width="15" height="15" fill="#000000" />
  <rect x="195" y="90" width="15" height="15" fill="#000000" />
  <rect x="240" y="90" width="15" height="15" fill="#000000" />
  <rect x="255" y="90" width="15" height="15" fill="#000000" />
  <rect x="285" y="90" width="15" height="15" fill="#000000" />
  <rect x="300" y="90" width="15" height="15" fill="#000000" />
  <rect x="330" y="90" width="15" height="15" fill="#000000" />
  <rect x="360" y="90" width="15" height="15" fill="#000000" />
  <rect x="390" y="90" width="15" height="15" fill="#000000" />
  <rect x="405" y="90" width="15" height="15" fill="#000000" />
  <rect x="420" y="90" width="15" height="15" fill="#000000" />
  <rect x="60" y="105" width="15" height="15" fill="#000000" />
  <rect x="90" y="105" width="15" height="15" fill="#000000" />
  <rect x="105" y="105" width="15" height="15" fill="#000000" />
  <rect x="120" y="105" width="15" height="15" fill="#000000" />
  <rect x="150" y="105" width="15" height="15" fill="#000000" />
  <rect x="210" y="105" width="15" height="15" fill="#000000" />
  <rect x="255" y="105" width="15" height="15" fill="#000000" />
  <rect x="270" y="105" width="15" height="15" fill="#000000" />
  <rect x="315" y="105" width="15" height="15" fill="#000000" />
  <rect x="360" y="105" width="15" height="15" fill="#000000" />
  <rect x="390" y="105" width="15" height="15" fill="#000000" />
  <rect x="405" y="105" width="15" height="15" fill="#000000" />
  <rect x="420" y="105" width="15" height="15" fill="#000000" />
  <rect x="60" y="120" width="15" height="15" fill="#000000" />
  <rect x="90" y="120" width="15" height="15" fill="#000000" />
  <rect x="105" y="120" width="15" height="15" fill="#000000" />
  <rect x="120" y="120" width="15" height="15" fill="#000000" />
  <rect x="150" y="120" width="15" height="15" fill="#000000" />
  <rect x="180" y="120" width="15" height="15" fill="#000000" />
  <rect x="210" y="120" width="15" height="15" fill="#000000" />
  <rect x="225" y="120" width="15" height="15" fill="#000000" />
  <rect x="270" y="120" width="15" height="15" fill="#000000" />
  <rect x="300" y="120" width="15" height="15" fill="#000000" />
  <rect x="330" y="120" width="15" height="15" fill="#000000" />
  <rect x="360" y="120" width="15" height="15" fill="#000000" />
  <rect x="390" y="120" width="15" height="15" fill="#000000" />
  <rect x="405" y="120" width="15" height="15" fill="#000000" />
  <rect x="420" y="120" width="15" height="15" fill="#000000" />
  <rect x="60" y="135" width="15" height="15" fill="#000000" />
  <rect x="150" y="135" width="15" height="15" fill="#000000" />
  <rect x="195" y="135" width="15" height="15" fill="#000000" />
  <rect x="240" y="135" width="15" height="15" fill="#000000" />
  <rect x="285" y="135" width="15" height="15" fill="#000000" />
  <rect x="315" y="135" width="15" height="15" fill="#000000" />
  <rect x="360" y="135" width="15" height="15" fill="#000000" />
  <rect x="60" y="150" width="15" height="15" fill="#000000" />
  <rect x="75" y="150" width="15" height="15" fill="#000000" />
  <rect x="90" y="150" width="15" height="15" fill="#000000" />
  <rect x="105" y="150" width="15" height="15" fill="#000000" />
  <rect x="120" y="150" width="15" height="15" fill="#000000" />
  <rect x="135" y="150" width="15" height="15" fill="#000000" />
  <rect x="150" y="150" width="15" height="15" fill="#000000" />
  <rect x="180" y="150" width="15" height="15" fill="#000000" />
  <rect x="210" y="150" width="15" height="15" fill="#000000" />
  <rect x="240" y="150" width="15" height="15" fill="#000000" />
  <rect x="270" y="150" width="15" height="15" fill="#000000" />
  <rect x="300" y="150" width="15" height="15" fill="#000000" />
  <rect x="330" y="150" width="15" height="15" fill="#000000" />
  <rect x="360" y="150" width="15" height="15" fill="#000000" />
  <rect x="375" y="150" width="15" height="15" fill="#000000" />
  <rect x="390" y="150" width="15" height="15" fill="#000000" />
  <rect x="405" y="150" width="15" height="15" fill="#000000" />
  <rect x="420" y="150" width="15" height="15" fill="#000000" />
  <rect x="180" y="165" width="15" height="15" fill="#000000" />
  <rect x="195" y="165" width="15" height="15" fill="#000000" />
  <rect x="225" y="165" width="15" height="15" fill="#000000" />
  <rect x="255" y="165" width="15" height="15" fill="#000000" />
  <rect x="270" y="165" width="15" height="15" fill="#000000" />
  <rect x="285" y="165" width="15" height="15" fill="#000000" />
  <rect x="330" y="165" width="15" height="15" fill="#000000" />
  <rect x="60" y="180" width="15" height="15" fill="#000000" />
  <rect x="75" y="180" width="15" height="15" fill="#000000" />
  <rect x="105" y="180" width="15" height="15" fill="#000000" />
  <rect x="120" y="180" width="15" height="15" fill="#000000" />
  <rect x="150" y="180" width="15" height="15" fill="#000000" />
  <rect x="165" y="180" width="15" height="15" fill="#000000" />
  <rect x="210" y="180" width="15" height="15" fill="#000000" />
  <rect x="240" y="180" width="15" height="15" fill="#000000" />
  <rect x="300" y="180" width="15" height="15" fill="#000000" />
  <rect x="315" y="180" width="15" height="15" fill="#000000" />
  <rect x="345" y="180" width="15" height="15" fill="#000000" />
  <rect x="360" y="180" width="15" height="15" fill="#000000" />
  <rect x="390" y="180" width="15" height="15" fill="#000000" />
  <rect x="405" y="180" width="15" height="15" fill="#000000" />
  <rect x="75" y="195" width="15" height="15" fill="#000000" />
  <rect x="90" y="195" width="15" height="15" fill="#000000" />
  <rect x="120" y="195" width="15" height="15" fill="#000000" />
  <rect x="135" y="195" width="15" height="15" fill="#000000" />
  <rect x="165" y="195" width="15" height="15" fill="#000000" />
  <rect x="195" y="195" width="15" height="15" fill="#000000" />
  <rect x="225" y="195" width="15" height="15" fill="#000000" />
  <rect x="270" y="195" width="15" height="15" fill="#000000" />
  <rect x="285" y="195" width="15" height="15" fill="#000000" />
  <rect x="315" y="195" width="15" height="15" fill="#000000" />
  <rect x="345" y="195" width="15" height="15" fill="#000000" />
  <rect x="375" y="195" width="15" height="15" fill="#000000" />
  <rect x="390" y="195" width="15" height="15" fill="#000000" />
  <rect x="420" y="195" width="15" height="15" fill="#000000" />
  <rect x="60" y="210" width="15" height="15" fill="#000000" />
  <rect x="105" y="210" width="15" height="15" fill="#000000" />
  <rect x="120" y="210" width="15" height="15" fill="#000000" />
  <rect x="150" y="210" width="15" height="15" fill="#000000" />
  <rect x="180" y="210" width="15" height="15" fill="#000000" />
  <rect x="210" y="210" width="15" height="15" fill="#000000" />
  <rect x="240" y="210" width="15" height="15" fill="#000000" />
  <rect x="255" y="210" width="15" height="15" fill="#000000" />
  <rect x="300" y="210" width="15" height="15" fill="#000000" />
  <rect x="330" y="210" width="15" height="15" fill="#000000" />
  <rect x="360" y="210" width="15" height="15" fill="#000000" />
  <rect x="405" y="210" width="15" height="15" fill="#000000" />
  <rect x="420" y="210" width="15" height="15" fill="#000000" />
  <rect x="75" y="225" width="15" height="15" fill="#000000" />
  <rect x="135" y="225" width="15" height="15" fill="#000000" />
  <rect x="165" y="225" width="15" height="15" fill="#000000" />
  <rect x="180" y="225" width="15" height="15" fill="#000000" />
  <rect x="195" y="225" width="15" height="15" fill="#000000" />
  <rect x="225" y="225" width="15" height="15" fill="#000000" />
  <rect x="270" y="225" width="15" height="15" fill="#000000" />
  <rect x="315" y="225" width="15" height="15" fill="#000000" />
  <rect x="345" y="225" width="15" height="15" fill="#000000" />
  <rect x="360" y="225" width="15" height="15" fill="#000000" />
  <rect x="375" y="225" width="15" height="15" fill="#000000" />
  <rect x="90" y="240" width="15" height="15" fill="#000000" />
  <rect x="105" y="240" width="15" height="15" fill="#000000" />
  <rect x="150" y="240" width="15" height="15" fill="#000000" />
  <rect x="210" y="240" width="15" height="15" fill="#000000" />
  <rect x="240" y="240" width="15" height="15" fill="#000000" />
  <rect x="255" y="240" width="15" height="15" fill="#000000" />
  <rect x="285" y="240" width="15" height="15" fill="#000000" />
  <rect x="300" y="240" width="15" height="15" fill="#000000" />
  <rect x="330" y="240" width="15" height="15" fill="#000000" />
  <rect x="390" y="240" width="15" height="15" fill="#000000" />
  <rect x="405" y="240" width="15" height="15" fill="#000000" />
  <rect x="60" y="255" width="15" height="15" fill="#000000" />
  <rect x="75" y="255" width="15" height="15" fill="#000000" />
  <rect x="105" y="255" width="15" height="15" fill="#000000" />
  <rect x="135" y="255" width="15" height="15" fill="#000000" />
  <rect x="165" y="255" width="15" height="15" fill="#000000" />
  <rect x="180" y="255" width="15" height="15" fill="#000000" />
  <rect x="210" y="255" width="15" height="15" fill="#000000" />
  <rect x="270" y="255" width="15" height="15" fill="#000000" />
  <rect x="315" y="255" width="15" height="15" fill="#000000" />
  <rect x="345" y="255" width="15" height="15" fill="#000000" />
  <rect x="360" y="255" width="15" height="15" fill="#000000" />
  <rect x="390" y="255" width="15" height="15" fill="#000000" />
  <rect x="420" y="255" width="15" height="15" fill="#000000" />
  <rect x="60" y="270" width="15" height="15" fill="#000000" />
  <rect x="120" y="270" width="15" height="15" fill="#000000" />
  <rect x="150" y="270" width="15" height="15" fill="#000000" />
  <rect x="165" y="270" width="15" height="15" fill="#000000" />
  <rect x="195" y="270" width="15" height="15" fill="#000000" />
  <rect x="225" y="270" width="15" height="15" fill="#000000" />
  <rect x="240" y="270" width="15" height="15" fill="#000000" />
  <rect x="270" y="270" width="15" height="15" fill="#000000" />
  <rect x="285" y="270" width="15" height="15" fill="#000000" />
  <rect x="315" y="270" width="15" height="15" fill="#000000" />
  <rect x="330" y="270" width="15" height="15" fill="#000000" />
  <rect x="375" y="270" width="15" height="15" fill="#000000" />
  <rect x="75" y="285" width="15" height="15" fill="#000000" />
  <rect x="90" y="285" width="15" height="15" fill="#000000" />
  <rect x="105" y="285" width="15" height="15" fill="#000000" />
  <rect x="135" y="285" width="15" height="15" fill="#000000" />
  <rect x="180" y="285" width="15" height="15" fill="#000000" />
  <rect x="210" y="285" width="15" height="15" fill="#000000" />
  <rect x="255" y="285" width="15" height="15" fill="#000000" />
  <rect x="300" y="285" width="15" height="15" fill="#000000" />
  <rect x="345" y="285" width="15" height="15" fill="#000000" />
  <rect x="360" y="285" width="15" height="15" fill="#000000" />
  <rect x="390" y="285" width="15" height="15" fill="#000000" />
  <rect x="405" y="285" width="15" height="15" fill="#000000" />
  <rect x="420" y="285" width="15" height="15" fill="#000000" />
  <rect x="60" y="300" width="15" height="15" fill="#000000" />
  <rect x="90" y="300" width="15" height="15" fill="#000000" />
  <rect x="120" y="300" width="15" height="15" fill="#000000" />
  <rect x="150" y="300" width="15" height="15" fill="#000000" />
  <rect x="165" y="300" width="15" height="15" fill="#000000" />
  <rect x="195" y="300" width="15" height="15" fill="#000000" />
  <rect x="225" y="300" width="15" height="15" fill="#000000" />
  <rect x="240" y="300" width="15" height="15" fill="#000000" />
  <rect x="270" y="300" width="15" height="15" fill="#000000" />
  <rect x="300" y="300" width="15" height="15" fill="#000000" />
  <rect x="315" y="300" width="15" height="15" fill="#000000" />
  <rect x="345" y="300" width="15" height="15" fill="#000000" />
  <rect x="375" y="300" width="15" height="15" fill="#000000" />
  <rect x="405" y="300" width="15" height="15" fill="#000000" />
  <rect x="180" y="315" width="15" height="15" fill="#000000" />
  <rect x="210" y="315" width="15" height="15" fill="#000000" />
  <rect x="255" y="315" width="15" height="15" fill="#000000" />
  <rect x="285" y="315" width="15" height="15" fill="#000000" />
  <rect x="300" y="315" width="15" height="15" fill="#000000" />
  <rect x="330" y="315" width="15" height="15" fill="#000000" />
  <rect x="345" y="315" width="15" height="15" fill="#000000" />
  <rect x="390" y="315" width="15" height="15" fill="#000000" />
  <rect x="420" y="315" width="15" height="15" fill="#000000" />
  <rect x="60" y="330" width="15" height="15" fill="#000000" />
  <rect x="75" y="330" width="15" height="15" fill="#000000" />
  <rect x="90" y="330" width="15" height="15" fill="#000000" />
  <rect x="105" y="330" width="15" height="15" fill="#000000" />
  <rect x="120" y="330" width="15" height="15" fill="#000000" />
  <rect x="135" y="330" width="15" height="15" fill="#000000" />
  <rect x="150" y="330" width="15" height="15" fill="#000000" />
  <rect x="195" y="330" width="15" height="15" fill="#000000" />
  <rect x="225" y="330" width="15" height="15" fill="#000000" />
  <rect x="240" y="330" width="15" height="15" fill="#000000" />
  <rect x="270" y="330" width="15" height="15" fill="#000000" />
  <rect x="315" y="330" width="15" height="15" fill="#000000" />
  <rect x="345" y="330" width="15" height="15" fill="#000000" />
  <rect x="360" y="330" width="15" height="15" fill="#000000" />
  <rect x="375" y="330" width="15" height="15" fill="#000000" />
  <rect x="405" y="330" width="15" height="15" fill="#000000" />
  <rect x="420" y="330" width="15" height="15" fill="#000000" />
  <rect x="60" y="345" width="15" height="15" fill="#000000" />
  <rect x="150" y="345" width="15" height="15" fill="#000000" />
  <rect x="180" y="345" width="15" height="15" fill="#000000" />
  <rect x="210" y="345" width="15" height="15" fill="#000000" />
  <rect x="255" y="345" width="15" height="15" fill="#000000" />
  <rect x="285" y="345" width="15" height="15" fill="#000000" />
  <rect x="300" y="345" width="15" height="15" fill="#000000" />
  <rect x="330" y="345" width="15" height="15" fill="#000000" />
  <rect x="390" y="345" width="15" height="15" fill="#000000" />
  <rect x="60" y="360" width="15" height="15" fill="#000000" />
  <rect x="90" y="360" width="15" height="15" fill="#000000" />
  <rect x="105" y="360" width="15" height="15" fill="#000000" />
  <rect x="120" y="360" width="15" height="15" fill="#000000" />
  <rect x="150" y="360" width="15" height="15" fill="#000000" />
  <rect x="195" y="360" width="15" height="15" fill="#000000" />
  <rect x="225" y="360" width="15" height="15" fill="#000000" />
  <rect x="240" y="360" width="15" height="15" fill="#000000" />
  <rect x="270" y="360" width="15" height="15" fill="#000000" />
  <rect x="315" y="360" width="15" height="15" fill="#000000" />
  <rect x="345" y="360" width="15" height="15" fill="#000000" />
  <rect x="360" y="360" width="15" height="15" fill="#000000" />
  <rect x="375" y="360" width="15" height="15" fill="#000000" />
  <rect x="405" y="360" width="15" height="15" fill="#000000" />
  <rect x="60" y="375" width="15" height="15" fill="#000000" />
  <rect x="90" y="375" width="15" height="15" fill="#000000" />
  <rect x="105" y="375" width="15" height="15" fill="#000000" />
  <rect x="120" y="375" width="15" height="15" fill="#000000" />
  <rect x="150" y="375" width="15" height="15" fill="#000000" />
  <rect x="180" y="375" width="15" height="15" fill="#000000" />
  <rect x="210" y="375" width="15" height="15" fill="#000000" />
  <rect x="255" y="375" width="15" height="15" fill="#000000" />
  <rect x="285" y="375" width="15" height="15" fill="#000000" />
  <rect x="300" y="375" width="15" height="15" fill="#000000" />
  <rect x="330" y="375" width="15" height="15" fill="#000000" />
  <rect x="390" y="375" width="15" height="15" fill="#000000" />
  <rect x="420" y="375" width="15" height="15" fill="#000000" />
  <rect x="60" y="390" width="15" height="15" fill="#000000" />
  <rect x="90" y="390" width="15" height="15" fill="#000000" />
  <rect x="105" y="390" width="15" height="15" fill="#000000" />
  <rect x="120" y="390" width="15" height="15" fill="#000000" />
  <rect x="150" y="390" width="15" height="15" fill="#000000" />
  <rect x="195" y="390" width="15" height="15" fill="#000000" />
  <rect x="225" y="390" width="15" height="15" fill="#000000" />
  <rect x="240" y="390" width="15" height="15" fill="#000000" />
  <rect x="270" y="390" width="15" height="15" fill="#000000" />
  <rect x="315" y="390" width="15" height="15" fill="#000000" />
  <rect x="345" y="390" width="15" height="15" fill="#000000" />
  <rect x="360" y="390" width="15" height="15" fill="#000000" />
  <rect x="375" y="390" width="15" height="15" fill="#000000" />
  <rect x="405" y="390" width="15" height="15" fill="#000000" />
  <rect x="60" y="405" width="15" height="15" fill="#000000" />
  <rect x="150" y="405" width="15" height="15" fill="#000000" />
  <rect x="180" y="405" width="15" height="15" fill="#000000" />
  <rect x="210" y="405" width="15" height="15" fill="#000000" />
  <rect x="255" y="405" width="15" height="15" fill="#000000" />
  <rect x="285" y="405" width="15" height="15" fill="#000000" />
  <rect x="300" y="405" width="15" height="15" fill="#000000" />
  <rect x="330" y="405" width="15" height="15" fill="#000000" />
  <rect x="390" y="405" width="15" height="15" fill="#000000" />
  <rect x="60" y="420" width="15" height="15" fill="#000000" />
  <rect x="75" y="420" width="15" height="15" fill="#000000" />
  <rect x="90" y="420" width="15" height="15" fill="#000000" />
  <rect x="105" y="420" width="15" height="15" fill="#000000" />
  <rect x="120" y="420" width="15" height="15" fill="#000000" />
  <rect x="135" y="420" width="15" height="15" fill="#000000" />
  <rect x="150" y="420" width="15" height="15" fill="#000000" />
  <rect x="195" y="420" width="15" height="15" fill="#000000" />
  <rect x="225" y="420" width="15" height="15" fill="#000000" />
  <rect x="240" y="420" width="15" height="15" fill="#000000" />
  <rect x="270" y="420" width="15" height="15" fill="#000000" />
  <rect x="315" y="420" width="15" height="15" fill="#000000" />
  <rect x="345" y="420" width="15" height="15" fill="#000000" />
  <rect x="360" y="420" width="15" height="15" fill="#000000" />
  <rect x="375" y="420" width="15" height="15" fill="#000000" />
  <rect x="405" y="420" width="15" height="15" fill="#000000" />
  <rect x="420" y="420" width="15" height="15" fill="#000000" />
</svg>